<svg width="40" height="40" viewBox="0 0 40 40" fill="none" xmlns="http://www.w3.org/2000/svg">
<g clip-path="url(#clip0_104_281)">
<path d="M20 40C31.0457 40 40 31.0457 40 20C40 8.9543 31.0457 0 20 0C8.9543 0 0 8.9543 0 20C0 31.0457 8.9543 40 20 40Z" fill="url(#paint0_linear_104_281)"/>
<path d="M19.9987 36.6673C10.8088 36.6673 3.33203 29.1906 3.33203 20.0006C3.33203 10.8107 10.8088 3.33398 19.9987 3.33398C29.189 3.33398 36.6654 10.8107 36.6654 20.0006C36.6654 29.1906 29.189 36.6673 19.9987 36.6673Z" fill="url(#paint1_linear_104_281)"/>
<path opacity="0.3" d="M27.0509 20.6085L27.0398 20.5644C25.4165 15.4738 20.5793 11.8597 20.3736 11.7091L19.7492 11.25L19.7896 12.0213C19.7896 12.0544 19.9034 15.044 17.0056 17.5306C13.8579 20.2338 13.8763 22.4633 13.8836 23.6606L13.8873 23.8259C13.8873 27.091 16.2835 29.5324 19.7117 29.9349C19.5251 29.9055 19.3345 29.8675 19.1432 29.809C18.0376 29.4674 17.3912 28.6925 17.2663 27.5759L17.237 27.3555C17.1378 26.4924 17.0092 25.4236 18.8971 23.3962C19.6023 22.6395 20.2156 21.8242 20.7225 20.9757L20.9759 20.5497L21.3102 20.917C22.3092 22.0078 23.0731 23.1097 23.5873 24.1821C24.0611 25.1297 24.0906 26.6283 24.0538 26.9478C23.8738 28.5786 22.6948 29.7943 21.1155 29.9706C21.0126 29.9824 20.8585 29.9938 20.6698 29.998C20.6864 29.9981 20.7022 30 20.7188 30C24.4505 30 27.3704 26.9992 27.3704 23.1684C27.3704 22.2502 27.0619 20.6745 27.0509 20.6085Z" fill="black"/>
<path d="M26.4259 19.9835L26.4148 19.9394C24.7915 14.8488 19.9543 11.2347 19.7486 11.0841L19.1242 10.625L19.1646 11.3963C19.1646 11.4294 19.2784 14.419 16.3806 16.9056C13.2329 19.6088 13.2513 21.8383 13.2586 23.0356L13.2623 23.2009C13.2623 26.466 15.6585 28.9074 19.0867 29.3099C18.9001 29.2805 18.7095 29.2425 18.5182 29.184C17.4126 28.8424 16.7662 28.0675 16.6413 26.9509L16.612 26.7305C16.5128 25.8674 16.3842 24.7986 18.2721 22.7712C18.9773 22.0145 19.5906 21.1992 20.0975 20.3507L20.3509 19.9247L20.6852 20.292C21.6842 21.3828 22.4481 22.4847 22.9623 23.5571C23.4361 24.5047 23.4656 26.0033 23.4288 26.3228C23.2488 27.9536 22.0698 29.1693 20.4905 29.3456C20.3876 29.3574 20.2335 29.3688 20.0448 29.373C20.0614 29.3731 20.0772 29.375 20.0938 29.375C23.8255 29.375 26.7454 26.3742 26.7454 22.5434C26.7454 21.6252 26.4369 20.0495 26.4259 19.9835Z" fill="white"/>
</g>
<defs>
<linearGradient id="paint0_linear_104_281" x1="2.96875e-07" y1="20" x2="40" y2="20" gradientUnits="userSpaceOnUse">
<stop stop-color="#E24263"/>
<stop offset="1" stop-color="#DD1E47"/>
</linearGradient>
<linearGradient id="paint1_linear_104_281" x1="3.33203" y1="20.0006" x2="36.6654" y2="20.0006" gradientUnits="userSpaceOnUse">
<stop stop-color="#DD1E47"/>
<stop offset="1" stop-color="#E24263"/>
</linearGradient>
<clipPath id="clip0_104_281">
<rect width="40" height="40" fill="white"/>
</clipPath>
</defs>
</svg>
